<svg version="1.0" xmlns="http://www.w3.org/2000/svg"  width="100%" height="100%" viewBox="0 0 900.000000 900.000000"  preserveAspectRatio="xMidYMid meet">  <g transform="translate(0.000000,900.000000) scale(0.100000,-0.100000)" fill="#FFFFFF" stroke="none"> <path d="M4425 7460 c-8 -16 -15 -49 -15 -73 0 -28 -6 -49 -16 -58 -8 -7 -27 -36 -42 -63 -24 -47 -25 -59 -23 -164 3 -111 2 -113 -28 -159 -17 -26 -31 -57 -31 -69 0 -17 -16 -35 -53 -63 -121 -89 -195 -213 -197 -328 0 -35 6 -38 42 -24 13 5 57 17 98 27 64 16 111 19 310 18 218 -2 241 -4 320 -26 47 -14 92 -27 100 -29 22 -6 24 34 5 94 -37 116 -73 168 -167 244 -38 30 -68 62 -68 71 0 10 -13 39 -30 65 -27 44 -30 54 -34 169 -5 134 -14 173 -57 232 -20 27 -29 52 -29 77 0 85 -53 121 -85 59z m74 -293 c7 -14 11 -54 9 -107 -3 -82 -4 -85 -30 -94 -22 -8 -32 -6 -48 9 -16 15 -20 30 -20 87 0 82 19 128 54 128 13 0 28 -9 35 -23z"/> <path d="M4393 6206 l-28 -24 0 -154 0 -153 95 0 95 0 0 153 0 152 -30 25 c-40 33 -94 33 -132 1z"/> <path d="M4121 6163 c-24 -20 -27 -46 -23 -217 l2 -109 52 7 c29 4 56 13 60 19 4 7 8 69 8 138 0 113 -2 129 -21 153 -24 30 -48 33 -78 9z"/> <path d="M4750 6172 c-34 -12 -39 -36 -40 -169 0 -129 1 -133 24 -148 14 -9 39 -15 58 -13 l33 3 3 135 c2 143 -5 177 -43 190 -11 4 -27 5 -35 2z"/> <path d="M3922 6138 c-7 -7 -12 -33 -12 -59 0 -29 -6 -51 -15 -59 -8 -7 -17 -27 -21 -46 -3 -19 -10 -37 -15 -40 -11 -6 -12 -2162 -2 -3161 4 -477 10 -683 17 -685 6 -2 85 -1 176 2 l165 5 5 275 c5 301 9 319 68 372 104 92 254 93 345 3 66 -67 66 -64 68 -368 1 -174 6 -280 12 -284 14 -8 340 -4 349 5 4 4 8 864 8 1912 1 1962 2 1927 -36 2002 -8 14 -14 42 -14 61 0 48 -9 67 -31 67 -16 0 -19 -8 -19 -54 0 -35 -5 -58 -15 -66 -8 -7 -15 -22 -15 -34 0 -12 -7 -31 -15 -43 -11 -16 -15 -61 -17 -199 -3 -170 -4 -179 -22 -177 -11 1 -62 5 -113 8 l-93 7 0 -678 c0 -662 -11 -1089 -29 -1136 -9 -22 -10 -21 -26 17 -30 68 -34 207 -35 1011 0 656 -2 783 -14 793 -9 8 -51 11 -122 9 l-109 -3 -6 -830 c-6 -811 -9 -889 -40 -984 -17 -52 -20 -56 -33 -35 -8 14 -12 282 -14 919 -2 533 -7 904 -13 911 -6 7 -25 8 -56 4 -27 -4 -75 -9 -108 -11 l-60 -4 -3 175 c-2 129 -6 183 -17 207 -8 17 -15 40 -15 51 0 12 -4 24 -10 27 -5 3 -10 28 -10 54 0 53 -18 79 -38 59z m230 -792 c4 -6 8 -59 8 -117 l0 -107 -40 -10 c-22 -5 -42 -7 -44 -3 -4 6 -8 144 -7 214 1 41 60 57 83 23z m348 -3 c18 -23 20 -38 18 -122 -3 -94 -3 -96 -30 -105 -18 -6 -38 -6 -55 0 -28 9 -28 11 -31 107 -3 92 -1 98 22 122 32 32 49 32 76 -2z m336 13 c17 -13 19 -26 18 -125 -1 -62 -4 -114 -8 -118 -3 -4 -23 -2 -44 3 l-37 9 -3 113 c-3 109 -2 113 20 122 31 12 32 12 54 -4z m-809 -1358 c-1 -161 -2 -30 -2 292 0 322 1 453 2 293 2 -161 2 -425 0 -585z m870 65 c-1 -147 -2 -29 -2 262 0 292 1 412 2 268 2 -144 2 -382 0 -530z"/> <path d="M2730 3515 c-14 -7 -41 -20 -60 -29 -19 -8 -60 -26 -90 -39 -30 -14 -111 -48 -180 -77 -69 -29 -141 -59 -160 -68 -19 -8 -48 -21 -65 -28 -16 -6 -48 -20 -70 -29 -48 -21 -84 -36 -150 -63 -114 -47 -113 -47 850 -49 495 -1 906 1 913 6 11 7 16 174 12 379 0 18 -964 16 -1000 -3z"/> <path d="M5197 3523 c-4 -3 -7 -89 -7 -189 0 -171 1 -184 19 -194 31 -16 1813 -9 1818 7 3 7 -4 16 -14 19 -25 8 -92 34 -130 51 -52 22 -100 42 -138 58 -34 14 -75 32 -140 60 -16 7 -66 27 -110 45 -44 18 -98 41 -120 51 -22 10 -82 36 -134 58 l-94 41 -472 0 c-259 0 -475 -3 -478 -7z"/> <path d="M2030 2555 l0 -465 850 0 c674 0 850 3 850 13 -1 6 1 215 2 462 l3 450 -852 3 -853 2 0 -465z m458 202 c22 -20 22 -25 20 -191 l-3 -171 -90 0 -90 0 0 171 c0 153 2 174 19 192 33 37 103 36 144 -1z m484 5 c29 -24 38 -79 38 -218 0 -101 -3 -134 -14 -143 -9 -8 -45 -11 -98 -9 l-83 3 -3 163 c-2 153 -1 165 19 190 32 42 101 49 141 14z m481 11 c4 -2 16 -22 27 -43 17 -33 20 -59 20 -174 0 -74 -3 -141 -6 -150 -9 -24 -189 -24 -198 0 -3 9 -6 79 -6 157 0 124 3 146 20 175 11 18 30 37 43 42 20 9 81 5 100 -7z"/> <path d="M5197 3013 c-4 -3 -7 -213 -7 -465 l0 -458 23 0 c552 -2 1671 1 1674 3 2 3 5 787 3 915 0 9 -175 12 -843 12 -464 0 -847 -3 -850 -7z m395 -250 c32 -29 39 -66 36 -218 l-3 -150 -100 0 -100 0 0 160 c0 150 1 162 23 192 12 17 32 34 45 36 32 6 80 -3 99 -20z m498 -8 c25 -25 25 -28 25 -193 l0 -167 -95 0 -95 0 0 171 c0 153 2 174 19 192 34 39 105 37 146 -3z m485 4 c18 -18 20 -33 20 -192 l0 -172 -92 -3 -93 -3 0 174 c0 167 1 174 23 194 12 11 29 23 37 26 25 10 84 -3 105 -24z"/> <path d="M3580 1869 c-107 -4 -346 -12 -530 -18 -363 -11 -588 -23 -860 -46 -96 -9 -193 -15 -215 -15 -49 0 -76 -14 -48 -24 125 -48 4335 -57 4996 -10 85 6 121 19 75 28 -47 9 -320 27 -543 37 -126 5 -237 12 -245 15 -8 3 -167 9 -355 15 -187 5 -425 14 -530 19 -223 11 -1462 10 -1745 -1z"/> </g> </svg> 
